<svg width="108" height="45" viewBox="0 0 108 45" fill="none" xmlns="http://www.w3.org/2000/svg">
<path d="M0.543282 1.1172H28.6724C28.8113 1.10238 28.941 1.04041 29.0398 0.941605C29.1386 0.842804 29.2006 0.713136 29.2154 0.574198C29.375 0 29.3108 0 29.0234 0H0.543282C0.400611 0.00423554 0.264944 0.0628038 0.164016 0.163732C0.0630876 0.264661 0.00451932 0.400327 0.000283783 0.542998C-0.00193556 0.69061 0.05359 0.83325 0.155024 0.940512C0.256458 1.04777 0.395777 1.11117 0.543282 1.1172Z" fill="#1E1E1E"/>
<path d="M0.543273 3.67199H27.9062C28.1936 3.67199 28.3214 3.41639 28.385 3.12899C28.4486 2.84159 28.6724 2.55419 27.9062 2.58599H0.543273C0.400602 2.59023 0.264935 2.6488 0.164007 2.74972C0.0630786 2.85065 0.00451034 2.98632 0.000274803 3.12899C-0.0003169 3.20046 0.0133242 3.27134 0.0404028 3.33748C0.0674815 3.40363 0.107456 3.46373 0.157996 3.51427C0.208537 3.56481 0.268632 3.60478 0.334779 3.63186C0.400926 3.65894 0.471801 3.67258 0.543273 3.67199Z" fill="#1E1E1E"/>
<path d="M0.543277 6.25798H27.0122C27.2996 6.25798 27.4274 6.19438 27.5552 5.71498C27.7148 5.17198 27.4916 5.17198 27.0122 5.17198H0.543277C0.400671 5.17642 0.265119 5.23505 0.164232 5.33594C0.0633457 5.43682 0.00471347 5.57237 0.000278495 5.71498C-0.00037009 5.78647 0.0132321 5.85737 0.0402907 5.92354C0.0673492 5.98972 0.107322 6.04983 0.157873 6.10039C0.208425 6.15094 0.268543 6.19091 0.334716 6.21797C0.400888 6.24503 0.471789 6.25863 0.543277 6.25798Z" fill="#1E1E1E"/>
<path d="M0.543273 8.84457H26.0222C26.597 8.84457 26.597 8.71677 26.7566 8.30157C26.948 7.66318 26.6924 7.75858 26.2454 7.75858H0.543273C0.471801 7.75798 0.400926 7.77163 0.334779 7.7987C0.268632 7.82578 0.208537 7.86576 0.157996 7.9163C0.107456 7.96684 0.0674815 8.02693 0.0404028 8.09308C0.0133242 8.15923 -0.0003169 8.2301 0.000274803 8.30157C0.00451034 8.44425 0.0630786 8.57991 0.164007 8.68084C0.264935 8.78177 0.400602 8.84034 0.543273 8.84457Z" fill="#1E1E1E"/>
<path d="M0.543291 11.4306H25.4156C25.7348 11.4306 25.8308 11.1114 25.8944 10.8876C26.0858 10.281 25.7666 10.3446 25.4474 10.3446H0.543291C0.399279 10.3446 0.261166 10.4018 0.159334 10.5036C0.0575016 10.6054 0.000292968 10.7435 0.000292968 10.8876C0.000292968 11.0316 0.0575016 11.1697 0.159334 11.2715C0.261166 11.3733 0.399279 11.4306 0.543291 11.4306Z" fill="#1E1E1E"/>
<path d="M0.543291 14.0166H24.362C24.905 14.0166 24.9368 13.8252 25.0646 13.4736C25.1606 13.218 25.2878 12.8988 24.6176 12.9306H0.543291C0.399279 12.9306 0.261166 12.9878 0.159334 13.0896C0.0575016 13.1914 0.000292968 13.3295 0.000292968 13.4736C0.000292968 13.6176 0.0575016 13.7557 0.159334 13.8575C0.261166 13.9594 0.399279 14.0166 0.543291 14.0166Z" fill="#1E1E1E"/>
<path d="M0.543291 16.5707H23.564C23.8832 16.5707 24.107 16.4747 24.2024 16.0277C24.266 15.7721 24.5858 15.4847 23.7872 15.4847H0.543291C0.400594 15.4892 0.264974 15.5479 0.164078 15.649C0.0631819 15.75 0.00460661 15.8856 0.000292968 16.0283C0.000292968 16.4753 0.128093 16.6031 0.543291 16.5707Z" fill="#1E1E1E"/>
<path d="M0.543273 19.1574H8.58925C9.54685 19.1574 8.97265 18.774 8.74885 18.6144C7.95085 17.976 7.88665 18.0714 7.24825 18.0714H0.543273C0.400634 18.0757 0.265025 18.1343 0.164118 18.2352C0.0632105 18.3361 0.00461019 18.4717 0.000274803 18.6144C-0.0003169 18.6858 0.0133242 18.7567 0.0404028 18.8229C0.0674815 18.889 0.107456 18.9491 0.157996 18.9996C0.208537 19.0502 0.268632 19.0902 0.334779 19.1172C0.400926 19.1443 0.471801 19.1579 0.543273 19.1574Z" fill="#1E1E1E"/>
<path d="M0.543291 21.7433H12.0699C13.0917 21.7433 12.5169 21.3923 12.2931 21.2003C12.1434 21.0259 11.957 20.8868 11.7473 20.7929C11.5375 20.6991 11.3096 20.6528 11.0799 20.6573H0.543291C0.399279 20.6573 0.261166 20.7145 0.159334 20.8164C0.0575016 20.9182 0.000292968 21.0563 0.000292968 21.2003C0.000292968 21.3443 0.0575016 21.4825 0.159334 21.5843C0.261166 21.6861 0.399279 21.7433 0.543291 21.7433Z" fill="#1E1E1E"/>
<path d="M0.543291 24.3299H15.9326C16.5392 24.3299 16.0604 23.9789 15.8048 23.7869C15.604 23.5628 15.3482 23.3948 15.0626 23.2996C14.7771 23.2044 14.4717 23.1852 14.1765 23.2439H0.543291C0.399279 23.2439 0.261166 23.3012 0.159334 23.403C0.0575016 23.5048 0.000292968 23.6429 0.000292968 23.7869C0.000292968 23.931 0.0575016 24.0691 0.159334 24.1709C0.261166 24.2727 0.399279 24.3299 0.543291 24.3299Z" fill="#1E1E1E"/>
<path d="M0.543291 26.9159H19.2854C19.7642 26.9159 19.7642 26.6603 19.349 26.3729C18.7742 25.9577 18.7742 25.8299 18.0398 25.8299H0.543291C0.399279 25.8299 0.261166 25.8871 0.159334 25.989C0.0575016 26.0908 0.000292968 26.2289 0.000292968 26.3729C0.000292968 26.5169 0.0575016 26.655 0.159334 26.7569C0.261166 26.8587 0.399279 26.9159 0.543291 26.9159Z" fill="#1E1E1E"/>
<path d="M0.543291 29.5019H19.445C19.796 29.5019 19.8602 29.4059 20.0198 28.9589C20.1794 28.4159 20.0834 28.4159 19.7324 28.4159H0.543291C0.399279 28.4159 0.261166 28.4731 0.159334 28.575C0.0575016 28.6768 0.000292968 28.8149 0.000292968 28.9589C0.000292968 29.1029 0.0575016 29.241 0.159334 29.3429C0.261166 29.4447 0.399279 29.5019 0.543291 29.5019Z" fill="#1E1E1E"/>
<path d="M0.543273 32.0567H18.6788C18.9662 32.0567 19.094 31.8329 19.1894 31.5137C19.2854 31.2263 19.4126 30.9707 18.9338 30.9707H0.543273C0.400602 30.9749 0.264935 31.0335 0.164007 31.1344C0.0630786 31.2354 0.00451034 31.371 0.000274803 31.5137C-0.0003169 31.5852 0.0133242 31.656 0.0404028 31.7222C0.0674815 31.7883 0.107456 31.8484 0.157996 31.899C0.208537 31.9495 0.268632 31.9895 0.334779 32.0166C0.400926 32.0437 0.471801 32.0573 0.543273 32.0567Z" fill="#1E1E1E"/>
<path d="M0.543277 34.6427H17.8166C18.0398 34.6427 18.2 34.6109 18.3596 34.0997C18.4556 33.7805 18.6152 33.5567 18.104 33.5567H0.543277C0.400638 33.561 0.265029 33.6196 0.164122 33.7206C0.0632142 33.8215 0.00461388 33.9571 0.000278495 34.0997C-0.00037009 34.1712 0.0132321 34.2421 0.0402907 34.3083C0.0673492 34.3744 0.107322 34.4346 0.157873 34.4851C0.208425 34.5357 0.268543 34.5756 0.334716 34.6027C0.400888 34.6298 0.471789 34.6434 0.543277 34.6427Z" fill="#1E1E1E"/>
<path d="M29.2472 34.6427H29.4386C29.5826 34.6427 29.7207 34.5855 29.8226 34.4837C29.9244 34.3818 29.9816 34.2437 29.9816 34.0997C29.9816 33.9557 29.9244 33.8176 29.8226 33.7158C29.7207 33.6139 29.5826 33.5567 29.4386 33.5567H29.3108C29.0355 33.6783 28.7862 33.8516 28.5764 34.0673C28.4486 34.1957 27.938 34.5791 29.2472 34.6427Z" fill="#1E1E1E"/>
<path d="M0.543291 37.2287H16.9544C17.2736 37.2287 17.3696 37.0691 17.4974 36.6857C17.6252 36.2387 17.6252 36.1427 17.21 36.1427H0.543291C0.399279 36.1427 0.261166 36.1999 0.159334 36.3017C0.0575016 36.4036 0.000292968 36.5417 0.000292968 36.6857C0.000292968 36.8297 0.0575016 36.9678 0.159334 37.0697C0.261166 37.1715 0.399279 37.2287 0.543291 37.2287Z" fill="#1E1E1E"/>
<path d="M29.4704 36.1433H27.0122C26.4056 36.0473 26.1818 36.3029 25.703 36.6539C25.607 36.7175 25.0328 37.1969 25.8308 37.2287H29.4704C29.6131 37.2245 29.7487 37.1659 29.8497 37.065C29.9506 36.964 30.0092 36.8284 30.0134 36.6857C30.0139 36.6143 30.0003 36.5435 29.9732 36.4774C29.946 36.4113 29.9061 36.3512 29.8555 36.3008C29.805 36.2503 29.7449 36.2104 29.6788 36.1833C29.6127 36.1563 29.5418 36.1427 29.4704 36.1433Z" fill="#1E1E1E"/>
<path d="M0.543273 39.8153H16.1246C16.4438 39.8153 16.6034 39.5597 16.6676 39.2723C16.7636 38.9531 16.8272 38.7293 16.4444 38.7293H0.543273C0.471801 38.7287 0.400926 38.7423 0.334779 38.7694C0.268632 38.7965 0.208537 38.8365 0.157996 38.887C0.107456 38.9376 0.0674815 38.9977 0.0404028 39.0638C0.0133242 39.1299 -0.0003169 39.2008 0.000274803 39.2723C0.00451034 39.415 0.0630786 39.5506 0.164007 39.6516C0.264935 39.7525 0.400602 39.8111 0.543273 39.8153Z" fill="#1E1E1E"/>
<path d="M29.4386 38.7293H23.5634C23.2976 38.6913 23.0264 38.7212 22.7751 38.8161C22.5239 38.9111 22.3008 39.068 22.1264 39.2723C21.935 39.4637 21.839 39.8153 22.1582 39.8153H29.4698C29.5424 39.8152 29.6142 39.8005 29.6811 39.7721C29.7479 39.7438 29.8083 39.7023 29.8589 39.6502C29.9094 39.5981 29.949 39.5364 29.9753 39.4687C30.0016 39.4011 30.0141 39.3288 30.012 39.2563C30.0099 39.1837 29.9933 39.1123 29.9632 39.0463C29.933 38.9802 29.89 38.9209 29.8365 38.8718C29.7831 38.8227 29.7203 38.7847 29.652 38.7603C29.5836 38.7358 29.5111 38.7253 29.4386 38.7293Z" fill="#1E1E1E"/>
<path d="M0.543291 42.4013H15.2307C15.6459 42.4013 15.7737 42.1457 15.8372 41.8583C15.9008 41.5709 16.0604 41.3153 15.6135 41.3153H0.543291C0.399279 41.3153 0.261166 41.3725 0.159334 41.4743C0.0575016 41.5762 0.000292968 41.7143 0.000292968 41.8583C0.000292968 42.0023 0.0575016 42.1404 0.159334 42.2422C0.261166 42.3441 0.399279 42.4013 0.543291 42.4013Z" fill="#1E1E1E"/>
<path d="M18.5828 41.8265C18.455 41.9543 18.0722 42.4331 18.9662 42.3695H29.4068C29.5495 42.3652 29.6851 42.3067 29.7861 42.2057C29.887 42.1048 29.9456 41.9691 29.9498 41.8265C29.9598 41.7556 29.9537 41.6834 29.9321 41.6153C29.9104 41.5471 29.8738 41.4846 29.8248 41.4325C29.7758 41.3804 29.7157 41.3399 29.6489 41.3141C29.5822 41.2883 29.5105 41.2779 29.4392 41.2835H19.5404C19.2212 41.2841 18.9338 41.5391 18.5828 41.8265Z" fill="#1E1E1E"/>
<path d="M29.4386 43.8701H16.6353C16.4072 43.8272 16.1723 43.8396 15.95 43.9062C15.7278 43.9728 15.5247 44.0917 15.3579 44.2529C15.3261 44.2529 15.1983 44.3807 15.1347 44.4443C15.1029 44.4761 15.0711 44.4761 15.0069 44.4761C14.8473 44.4125 15.3261 43.9013 14.6559 43.9013H0.543298C0.399207 43.9013 0.261017 43.9585 0.159128 44.0604C0.0572402 44.1623 0 44.3005 0 44.4446C0 44.5887 0.0572402 44.7269 0.159128 44.8288C0.261017 44.9306 0.399207 44.9879 0.543298 44.9879H29.4386V44.9561C29.5826 44.9561 29.7207 44.8989 29.8226 44.797C29.9244 44.6952 29.9816 44.5571 29.9816 44.4131C29.9816 44.2691 29.9244 44.131 29.8226 44.0291C29.7207 43.9273 29.5826 43.8701 29.4386 43.8701Z" fill="#1E1E1E"/>
<path d="M31.9076 0.0270013C31.6912 0.0235377 31.4787 0.0845156 31.297 0.202178C31.1154 0.319841 30.9729 0.488871 30.8876 0.687767C30.8023 0.886662 30.7781 1.10643 30.818 1.31913C30.858 1.53182 30.9603 1.72782 31.112 1.8822C31.2636 2.03658 31.4578 2.14236 31.6698 2.18608C31.8817 2.2298 32.1019 2.20949 32.3022 2.12773C32.5026 2.04598 32.6742 1.90646 32.795 1.72694C32.9159 1.54743 32.9806 1.33601 32.981 1.1196C32.9819 0.832866 32.8697 0.557348 32.6687 0.352808C32.4678 0.148268 32.1943 0.0312008 31.9076 0.0270013ZM31.892 2.0628C31.6437 2.06011 31.4065 1.95941 31.2321 1.78263C31.0577 1.60586 30.9602 1.36733 30.9608 1.119C30.9588 0.995454 30.9814 0.87275 31.0273 0.758034C31.0732 0.643318 31.1415 0.538883 31.2282 0.450814C31.3149 0.362745 31.4182 0.292803 31.5321 0.24506C31.6461 0.197318 31.7684 0.172731 31.892 0.172731C32.0156 0.172731 32.1379 0.197318 32.2518 0.24506C32.3658 0.292803 32.4691 0.362745 32.5558 0.450814C32.6425 0.538883 32.7107 0.643318 32.7566 0.758034C32.8026 0.87275 32.8252 0.995454 32.8232 1.119C32.8248 1.36761 32.7276 1.60667 32.5529 1.78364C32.3783 1.96061 32.1406 2.06102 31.892 2.0628Z" fill="#1E1E1E"/>
<path d="M32.1698 1.14779C32.2335 1.12771 32.289 1.08773 32.3282 1.03372C32.3674 0.979706 32.3882 0.914531 32.3876 0.847791C32.3876 0.623392 32.2328 0.503392 31.949 0.503392H31.4282V1.73759H31.6238V1.21079H31.8794C31.9553 1.20505 32.0312 1.22152 32.0978 1.25819C32.1548 1.29599 32.1734 1.35599 32.183 1.50419C32.1926 1.66199 32.1956 1.70639 32.2148 1.73819H32.4044C32.3797 1.67608 32.3688 1.60933 32.3726 1.54259C32.3654 1.27979 32.327 1.20419 32.1698 1.14779ZM31.892 1.08719H31.6238V0.632992H31.9142C32.1038 0.632992 32.192 0.702592 32.192 0.857391C32.192 1.01219 32.0936 1.08719 31.892 1.08719Z" fill="#1E1E1E"/>
<path d="M35.0264 8.71678V16.6032H36.0482L36.08 16.4436C36.527 13.698 37.4528 11.8776 38.762 10.824C39.9116 9.86638 40.8374 9.86638 43.0724 9.86638H43.9664V34.1003H40.0712V35.2499H52.4918V34.1003H48.7562V9.86638H49.874C51.662 9.86638 52.8752 9.86638 54.248 11.1756C55.046 11.814 55.7804 13.602 56.5148 16.476V16.6038H57.4406V8.71678H35.0264Z" fill="#1E1E1E"/>
<path d="M76.5337 9.22738C74.8093 8.71678 72.8617 8.71678 70.5949 8.71678H60.1544V9.83458H63.6343V34.1003H60.2498V35.2499H71.7763V34.1003H68.2963V9.92998H69.9883C73.5961 9.92998 75.2245 9.92998 76.2145 11.8776C76.4377 12.3882 76.7575 13.3782 76.7575 15.9648C76.7575 18.615 76.4383 20.0514 75.6079 20.9459C74.5543 22.1273 73.1497 22.1591 71.0419 22.1909L69.8287 22.2227V23.4359C72.8941 23.4359 74.9689 23.3723 76.9807 22.7015C79.5031 21.8075 82.0255 19.3812 82.0255 15.9966C82.0255 12.7716 79.9183 10.1856 76.5337 9.22738Z" fill="#1E1E1E"/>
<path d="M96.5851 23.4359H100.672C100.672 25.5431 100.64 30.5879 99.6504 32.2163C99.2203 32.9109 98.6105 33.4764 97.8854 33.8529C97.1604 34.2294 96.347 34.403 95.5314 34.3553C93.3601 34.3553 90.6781 33.3971 90.0715 28.7999C89.8103 26.3077 89.6931 23.8026 89.7205 21.2969C89.7205 18.1679 89.8483 14.3046 90.8701 12.261C91.196 11.6325 91.6431 11.0748 92.1856 10.6199C92.728 10.1651 93.3552 9.82209 94.0309 9.61076C94.7277 9.41934 95.4472 9.32267 96.1699 9.32336C101.725 9.32336 103.29 15.0707 103.609 16.8587L103.641 17.0183H104.726L104.471 8.62077H103.545C103.545 8.62077 102.46 9.89816 102.3 10.1214C100.521 8.87504 98.4058 8.19611 96.2335 8.17377C92.7535 8.17377 89.4007 9.92996 87.0061 13.0272C84.4519 16.2839 83.9407 18.7103 83.9407 21.5519C83.8592 24.786 84.8097 27.9621 86.6545 30.6197C88.9855 33.9401 92.0821 35.6327 95.8819 35.6327C100.767 35.6327 103.832 32.8871 105.077 30.3005C105.652 29.0231 105.844 25.6391 105.94 24.0107C105.94 24.0107 105.971 23.6597 105.971 23.4677H107.536V22.2227H96.5839L96.5851 23.4359Z" fill="#1E1E1E"/>
<path d="M106.927 8.57518C106.71 8.57177 106.498 8.63279 106.316 8.75047C106.135 8.86815 105.992 9.03717 105.907 9.23604C105.822 9.4349 105.798 9.65462 105.838 9.86725C105.878 10.0799 105.98 10.2758 106.132 10.4301C106.283 10.5844 106.478 10.6901 106.689 10.7337C106.901 10.7774 107.121 10.757 107.322 10.6752C107.522 10.5934 107.693 10.4539 107.814 10.2744C107.935 10.0949 108 9.88353 108 9.66717C108.001 9.38054 107.889 9.10515 107.688 8.90074C107.487 8.69632 107.213 8.57934 106.927 8.57518ZM106.911 10.6116C106.723 10.6144 106.539 10.5613 106.382 10.4591C106.224 10.3569 106.101 10.2101 106.027 10.0375C105.953 9.86491 105.933 9.67427 105.968 9.48987C106.003 9.30547 106.092 9.13566 106.224 9.00205C106.355 8.86845 106.524 8.7771 106.708 8.73963C106.892 8.70217 107.083 8.72029 107.256 8.79168C107.43 8.86307 107.578 8.98451 107.683 9.14053C107.787 9.29655 107.843 9.48008 107.842 9.66777C107.843 9.91611 107.745 10.1546 107.571 10.3314C107.397 10.5082 107.159 10.6089 106.911 10.6116Z" fill="#1E1E1E"/>
<path d="M107.189 9.69597C107.252 9.67589 107.308 9.63591 107.347 9.5819C107.386 9.52789 107.407 9.46271 107.407 9.39597C107.407 9.17157 107.252 9.05157 106.968 9.05157H106.447V10.2858H106.643V9.75837H106.898C106.974 9.75254 107.05 9.76902 107.116 9.80577C107.173 9.84357 107.192 9.90357 107.201 10.0518C107.211 10.2096 107.214 10.254 107.233 10.2852H107.423C107.398 10.2231 107.387 10.1563 107.391 10.0896C107.384 9.82857 107.347 9.75297 107.189 9.69597ZM106.911 9.63597H106.642V9.18117H106.933C107.122 9.18117 107.21 9.25077 107.21 9.40557C107.21 9.56037 107.113 9.63597 106.911 9.63597Z" fill="#1E1E1E"/>
</svg>
